# xmcd CD database file
#
# Track frame offsets:
#	150
#	22300
#	30700
#	65230
#	332550
#
# Disc length: 4440 seconds
#
# Revision: 0
# Processed by: cddbd v1.5.1PL0 Copyright (c) Steve Scherf et al.
# Submitted via: CDex 1.51
#
DISCID=47115605
DTITLE=Skoop On Somebody - 最後の夜明け
DYEAR=2004
DGENRE=JPop
TTITLE0=最後の夜明け
TTITLE1=alones
TTITLE2=最後の夜明け (In My Solitude)
TTITLE3=レーベルゲートCD2データ01
TTITLE4=レーベルゲートCD2データ02
EXTD=YEAR: 2004
EXTT0=
EXTT1=
EXTT2=
EXTT3=
EXTT4=
PLAYORDER=
